<?xml version="1.0" encoding="utf-8"?>
<!-- Generator: Adobe Illustrator 28.0.0, SVG Export Plug-In . SVG Version: 6.00 Build 0)  -->
<svg version="1.1" id="Layer_1" xmlns="http://www.w3.org/2000/svg" xmlns:xlink="http://www.w3.org/1999/xlink" x="0px" y="0px"
	 viewBox="0 0 582.6 698" style="enable-background:new 0 0 582.6 698;" xml:space="preserve">
<style type="text/css">
	.st0{fill:#FAFAFA;}
	.st1{fill:#8DBB42;}
	.st2{fill:url(#SVGID_1_);}
	.st3{fill:#86868b;}
</style>
<g>
	<g>
		<g>
			<path class="st0" d="M97.4,698v-8.6h7.7c1.6,0,2.8-0.1,3.7-0.3c0.7-0.2,1.4-0.6,2-1.1c0.6-0.6,1.3-1.5,2-2.7
				c0.7-1.3,1.7-3.2,2.8-5.6l0.2-0.5l-28.8-62.3h9.6l23.6,51.8l21.7-51.8h9.5l-29.4,69c-1.8,4-3.7,7.1-5.9,9
				c-2.3,2.1-5.6,3.2-10,3.2H97.4z"/>
			<path class="st0" d="M176.4,679.1c-8.3,0-15.2-1.6-20.2-4.8c-5.3-3.3-8.2-8.7-8.5-15.9l-0.1-1.9h8.5l0.2,1.6
				c0.2,1.9,0.5,3.5,1,4.9c0.4,1.2,1.3,2.5,2.6,3.7c1.3,1.2,3.4,2.3,6.2,3.1c2.9,0.9,6.9,1.3,11.7,1.3c6.7,0,11.6-0.9,14.5-2.8
				c2.6-1.7,3.9-4.2,3.9-7.6c0-2.5-0.8-4.3-2.3-5.6c-1.7-1.4-4.1-2.3-7.2-2.7l-19.4-2.6c-2-0.2-4-0.7-5.9-1.3
				c-1.9-0.7-3.7-1.6-5.3-2.7c-1.7-1.2-3.1-2.8-4.2-4.8c-1.1-2-1.6-4.3-1.6-6.9c0-1.9,0.4-3.9,1.2-5.9c0.8-2,2.2-4,4.1-5.7
				c1.9-1.8,4.5-3.2,7.8-4.2c3.2-1,7.2-1.5,11.8-1.5c5,0,9.4,0.5,12.8,1.6c3.5,1.1,6.4,2.6,8.5,4.4c2,1.9,3.6,4,4.5,6.2
				c0.9,2.2,1.5,4.7,1.6,7.3l0.1,1.9h-8.5l-0.1-1.6c-0.3-4.1-1.8-7.1-4.7-9c-3-2-7.8-3-14.5-3c-5.9,0-10.2,0.9-12.7,2.7
				c-2.4,1.7-3.5,3.8-3.5,6.5c0,2.3,0.7,3.9,2.2,5c1.7,1.3,4.2,2.1,7.4,2.6l17.6,2.4c5.9,0.8,10.5,2.5,13.7,5
				c3.4,2.7,5.2,6.7,5.2,11.9c0,3.9-1,7.2-3,9.7c-1.9,2.5-4.4,4.3-7.3,5.6c-2.8,1.2-5.8,2-8.9,2.4
				C182.5,678.9,179.4,679.1,176.4,679.1z"/>
			<path class="st0" d="M230,679.1c-7.1,0-10.2-1.3-12.3-3.9c-2-2.5-3-6.7-3-12.8v-37.7h-12.5v-7.9h12.5V595h8.5v21.8h16.4v7.9
				h-16.4v40.4c0,2.5,0.5,3.7,1.6,4.8c1,1,3.9,1.7,6.6,1.7c2.2,0,8.7,0,8.7,0v7.4C240.2,679.1,233.7,679.1,230,679.1z"/>
			<path class="st0" d="M272.6,679.1c-9.9,0-17.8-2.9-23.7-8.5c-5.9-5.7-8.8-13.4-8.8-23c0-3.3,0.6-6.8,1.7-10.3
				c1.1-3.5,3-6.9,5.5-10c2.6-3.2,6-5.7,10.3-7.6c4.2-1.9,9.3-2.9,15.1-2.9c9.9,0,17.8,3,23.5,9c5.7,5.9,8.6,13.7,8.7,23.2l0,1.8
				h-56.2c0.5,5.8,2.6,10.5,6.5,14.2c4.3,4.1,10.3,6.1,17.9,6.1c3.8,0,7-0.5,9.7-1.5c2.6-1,4.7-2.2,6.2-3.7c1.6-1.5,2.8-3,3.6-4.5
				c0.9-1.5,1.6-3.2,2.3-4.9l0.4-1.1h8.7l-0.8,2.4c-2.4,7.2-6.2,12.6-11.3,16.1C287,677.3,280.4,679.1,272.6,679.1z M295.5,642.9
				c-1.1-5.8-3.6-10.2-7.4-13.2c-4.2-3.4-9.6-5.1-15.9-5.1c-6.5,0-11.8,1.8-15.9,5.4c-3.6,3.2-6.1,7.5-7.3,12.8H295.5z"/>
			<path class="st0" d="M309.2,677.3v-60.5h8.5v9.8c1.7-2.3,3.7-4.2,6.2-5.8c4.3-2.7,9.3-4.1,15.1-4.1c1.4,0,2.9,0.2,4.6,0.7
				l1.3,0.4v8.8l-2.3-0.8c-0.5-0.2-1.2-0.3-1.9-0.4c-0.7-0.1-1.8-0.2-3.3-0.2c-6.3,0-11,1.9-14.5,5.9c-3.5,4.1-5.2,8.8-5.2,14.4
				v31.7H309.2z"/>
			<path class="st1" d="M392.4,679.1c-2.2,0-4.5-0.1-6.7-0.4c-2.3-0.3-4.8-1-7.5-2.1c-2.8-1.2-5.3-3.1-7.2-5.7c-2-2.7-3-6.2-3-10.4
				c0-3,0.6-5.7,1.9-7.9c1.2-2.2,2.9-4.1,5.1-5.4c2.1-1.3,4.4-2.3,7-3c2.5-0.7,5.4-1.1,8.6-1.3l19.3-1.3c3.7-0.2,5.1-1,5.6-1.4
				c0.3-0.3,1.1-1.2,1.1-4.7c0-3.5-1.2-6.1-3.7-7.9c-2.7-1.9-7.7-2.9-15-2.9c-6.6,0-11.3,1-13.9,3c-2.5,1.9-4.2,5.3-4.9,10l-0.2,1.5
				h-8.5l0.3-2c1-7.4,3.7-12.7,7.9-15.8c4.2-3.1,10.6-4.5,19.5-4.5c8.9,0,15.4,1.3,19.9,3.9c4.8,2.7,7.2,7.5,7.2,14.1v31
				c0,2.9,0.1,4.4,0.4,4.8c0.3,0.5,0.6,0.6,1.5,0.6c1.3,0,6.6,0,6.6,0v7.9c0,0-5.2,0-7.8,0c-4.8,0-6.7-2.7-7.4-4.4
				c-0.5-1.2-0.8-2.8-1-4.9c-0.9,1.1-1.9,2-3,2.9c-2.3,1.8-4.9,3.3-7.5,4.2c-2.6,0.9-5.1,1.6-7.5,1.9
				C397,678.9,394.7,679.1,392.4,679.1z M416.5,647.9c-1.8,0.8-4.2,1.3-7.2,1.5l-18.7,1.3c-4.8,0.3-8.5,1.3-10.9,2.9
				c-2.2,1.4-3.3,3.6-3.3,6.9c0,2.2,0.5,4.1,1.4,5.5c1,1.4,2.2,2.5,3.8,3.2c1.7,0.8,3.5,1.3,5.3,1.6c1.9,0.3,3.8,0.4,5.7,0.4
				c2.8,0,5.7-0.3,8.5-1c2.8-0.6,5.4-1.7,7.8-3c2.3-1.3,4.1-3.1,5.5-5.2c1.3-2,2-4.4,2-7.2V647.9z"/>
			<path class="st1" d="M466.6,679.1c-6.9,0-12.6-1.5-17-4.3c-2.4-1.5-4.4-3.3-5.9-5.2v9.5h-8.5v-84h8.5v31.7c1.8-2.1,4-3.9,6.5-5.6
				c4.4-2.8,9.9-4.3,16.4-4.3c4.4,0,8.5,0.8,12.3,2.2c3.8,1.5,7.2,3.6,10,6.4c2.8,2.7,5.1,6.1,6.6,9.9c1.6,3.8,2.3,8,2.3,12.5
				c0,4.1-0.7,8.1-2,11.9c-1.3,3.8-3.3,7.2-6,10.1c-2.7,2.9-6,5.2-9.9,6.9C476,678.3,471.6,679.1,466.6,679.1z M466.5,624.7
				c-2.8,0-5.7,0.4-8.4,1.3c-2.7,0.8-5.2,2.2-7.5,4c-2.2,1.8-4,4.3-5.4,7.3c-1.4,3.1-2.1,6.9-2.1,11.2c0,2.6,0.4,5.2,1.2,7.8
				c0.8,2.6,2,5,3.8,7.3c1.7,2.2,4.2,4,7.4,5.5c3.2,1.4,7.1,2.1,11.7,2.1c6.6,0,11.8-2,16-6.3c4.1-4.2,6.2-10,6.2-17.2
				c0-3.8-0.6-7.2-1.9-10.2c-1.2-2.9-2.9-5.3-5-7.1c-2.1-1.9-4.6-3.3-7.3-4.3C472.4,625.2,469.5,624.7,466.5,624.7z"/>
			<rect x="503.5" y="595" class="st1" width="8.5" height="84"/>
			<path class="st1" d="M550.3,679.1c-9.9,0-17.8-2.9-23.7-8.5c-5.9-5.7-8.8-13.4-8.8-23c0-3.3,0.6-6.8,1.7-10.3
				c1.1-3.5,3-6.9,5.5-10c2.6-3.2,6-5.7,10.3-7.6c4.2-1.9,9.3-2.9,15.1-2.9c9.9,0,17.8,3,23.5,9c5.7,5.9,8.6,13.7,8.7,23.2l0,1.8
				h-56.2c0.5,5.8,2.6,10.5,6.5,14.2c4.3,4.1,10.3,6.1,17.9,6.1c3.8,0,7.1-0.5,9.7-1.5c2.6-1,4.7-2.2,6.3-3.7c1.6-1.5,2.8-3,3.6-4.5
				c0.9-1.5,1.6-3.2,2.3-4.9l0.4-1.1h8.7l-0.8,2.4c-2.4,7.2-6.2,12.6-11.3,16.1C564.6,677.3,558.1,679.1,550.3,679.1z M573.1,642.9
				c-1.1-5.8-3.6-10.2-7.4-13.2c-4.2-3.4-9.6-5.1-15.9-5.1c-6.5,0-11.8,1.8-15.9,5.4c-3.6,3.2-6.1,7.5-7.3,12.8H573.1z"/>
		</g>
		<g>
			<path class="st0" d="M41.5,596c22.9,0,41.5,18.6,41.5,41.5c0,22.9-18.6,41.5-41.5,41.5C18.6,679.1,0,660.5,0,637.5
				C0,614.6,18.6,596,41.5,596z M10.4,637.5c0,17.2,13.9,31.1,31.1,31.1c17.2,0,31.1-13.9,31.1-31.1c0-17.2-13.9-31.1-31.1-31.1
				C24.3,606.4,10.4,620.4,10.4,637.5z"/>
		</g>
	</g>
	<g>
		
			<linearGradient id="SVGID_1_" gradientUnits="userSpaceOnUse" x1="195.0752" y1="411.239" x2="195.0752" y2="993.853" gradientTransform="matrix(0 -1 1 0 -407.5796 486.3827)">
			<stop  offset="0" style="stop-color:#BED630"/>
			<stop  offset="0.3286" style="stop-color:#7EBC37"/>
			<stop  offset="0.7896" style="stop-color:#2A9941"/>
			<stop  offset="1" style="stop-color:#088B45"/>
		</linearGradient>
		<path class="st2" d="M291.3,0c160.9,0,291.3,130.5,291.3,291.3c0,160.9-130.4,291.3-291.3,291.3C130.4,582.6,0,452.2,0,291.3
			C0,130.5,130.4,0,291.3,0z M72.8,291.3c0,120.7,97.8,218.5,218.5,218.5c120.7,0,218.5-97.8,218.5-218.5
			c0-120.7-97.8-218.5-218.5-218.5C170.7,72.9,72.8,170.7,72.8,291.3z"/>
		<polygon class="st3" points="109.2,291.3 291.3,400.6 473.3,291.3 473.3,364.1 291.3,473.4 109.2,364.1 		"/>
	</g>
</g>
</svg>
