<?xml version="1.0" encoding="utf-8"?>
<svg version="1.1" xmlns="http://www.w3.org/2000/svg" xmlns:xlink="http://www.w3.org/1999/xlink" viewBox="0 0 582.6 582.6">
<style type="text/css">
	.sym1{fill:url(#oys-grad);}
	.sym2{fill:#86868b;}
</style>
<linearGradient id="oys-grad" gradientUnits="userSpaceOnUse" x1="195.0752" y1="411.239" x2="195.0752" y2="993.853" gradientTransform="matrix(0 -1 1 0 -407.5796 486.3827)">
	<stop offset="0" style="stop-color:#BED630"/>
	<stop offset="0.3286" style="stop-color:#7EBC37"/>
	<stop offset="0.7896" style="stop-color:#2A9941"/>
	<stop offset="1" style="stop-color:#088B45"/>
</linearGradient>
<path class="sym1" d="M291.3,0c160.9,0,291.3,130.5,291.3,291.3c0,160.9-130.4,291.3-291.3,291.3C130.4,582.6,0,452.2,0,291.3 C0,130.5,130.4,0,291.3,0z M72.8,291.3c0,120.7,97.8,218.5,218.5,218.5c120.7,0,218.5-97.8,218.5-218.5 c0-120.7-97.8-218.5-218.5-218.5C170.7,72.9,72.8,170.7,72.8,291.3z"/>
<polygon class="sym2" points="109.2,291.3 291.3,400.6 473.3,291.3 473.3,364.1 291.3,473.4 109.2,364.1 "/>
</svg>
